<svg xmlns="http://www.w3.org/2000/svg" width="1920" height="1080" viewBox="0 0 1920 1080">
  <defs>
    <style>
      @import url('https://fonts.googleapis.com/css2?family=Inter:wght@400;600;700&amp;family=JetBrains+Mono:wght@400;500&amp;display=swap');
    </style>
    <linearGradient id="bgGrad" x1="0" y1="0" x2="1" y2="1">
      <stop offset="0%" stop-color="#0a0a0a"/>
      <stop offset="100%" stop-color="#111111"/>
    </linearGradient>
    <radialGradient id="glow" cx="50%" cy="50%" r="50%">
      <stop offset="0%" stop-color="rgba(92,224,216,0.08)"/>
      <stop offset="100%" stop-color="rgba(92,224,216,0)"/>
    </radialGradient>
    <filter id="shadow" x="-20%" y="-20%" width="140%" height="140%">
      <feDropShadow dx="0" dy="0" stdDeviation="30" flood-color="#5ce0d8" flood-opacity="0.15"/>
    </filter>
  </defs>

  <!-- Background -->
  <rect width="1920" height="1080" fill="url(#bgGrad)"/>

  <!-- Subtle glow behind center -->
  <ellipse cx="960" cy="500" rx="600" ry="400" fill="url(#glow)"/>

  <!-- Grid lines (subtle) -->
  <g stroke="rgba(255,255,255,0.03)" stroke-width="1">
    <line x1="0" y1="270" x2="1920" y2="270"/>
    <line x1="0" y1="540" x2="1920" y2="540"/>
    <line x1="0" y1="810" x2="1920" y2="810"/>
    <line x1="480" y1="0" x2="480" y2="1080"/>
    <line x1="960" y1="0" x2="960" y2="1080"/>
    <line x1="1440" y1="0" x2="1440" y2="1080"/>
  </g>

  <!-- Decorative triangle (logo motif) -->
  <polygon points="960,200 1080,410 840,410" stroke="#5ce0d8" stroke-width="2" fill="none" opacity="0.3" filter="url(#shadow)"/>
  <polygon points="960,220 1060,400 860,400" stroke="#5ce0d8" stroke-width="1" fill="none" opacity="0.15"/>

  <!-- Small V inside triangle -->
  <text x="960" y="380" text-anchor="middle" fill="#5ce0d8" font-family="'JetBrains Mono', monospace" font-size="48" font-weight="700" opacity="0.5">V</text>

  <!-- Greeting line -->
  <text x="960" y="500" text-anchor="middle" fill="#5ce0d8" font-family="'JetBrains Mono', monospace" font-size="22" letter-spacing="2">
    Hi, my name is
  </text>

  <!-- Name -->
  <text x="960" y="590" text-anchor="middle" fill="#e6f1ff" font-family="'Inter', sans-serif" font-size="96" font-weight="700" letter-spacing="-2">
    Vaibhaw.
  </text>

  <!-- Tagline -->
  <text x="960" y="660" text-anchor="middle" fill="#8892b0" font-family="'Inter', sans-serif" font-size="40" font-weight="600">
    I bootstrap ideas into products.
  </text>

  <!-- Accent line below -->
  <line x1="760" y1="710" x2="1160" y2="710" stroke="#5ce0d8" stroke-width="2" opacity="0.4"/>

  <!-- Tech tags at bottom -->
  <g font-family="'JetBrains Mono', monospace" font-size="14" fill="#8892b0" opacity="0.5">
    <text x="580" y="800" text-anchor="middle">Python</text>
    <text x="720" y="800" text-anchor="middle">Rust</text>
    <text x="860" y="800" text-anchor="middle">TypeScript</text>
    <text x="1020" y="800" text-anchor="middle">AI / LLMs</text>
    <text x="1160" y="800" text-anchor="middle">Docker</text>
    <text x="1300" y="800" text-anchor="middle">AWS</text>
  </g>

  <!-- Corner accents -->
  <g stroke="#5ce0d8" stroke-width="1.5" opacity="0.25">
    <!-- Top-left -->
    <line x1="60" y1="60" x2="60" y2="120"/>
    <line x1="60" y1="60" x2="120" y2="60"/>
    <!-- Top-right -->
    <line x1="1860" y1="60" x2="1860" y2="120"/>
    <line x1="1860" y1="60" x2="1800" y2="60"/>
    <!-- Bottom-left -->
    <line x1="60" y1="1020" x2="60" y2="960"/>
    <line x1="60" y1="1020" x2="120" y2="1020"/>
    <!-- Bottom-right -->
    <line x1="1860" y1="1020" x2="1860" y2="960"/>
    <line x1="1860" y1="1020" x2="1800" y2="1020"/>
  </g>

  <!-- Decorative dots -->
  <g fill="#5ce0d8" opacity="0.15">
    <circle cx="200" cy="300" r="2"/>
    <circle cx="200" cy="320" r="2"/>
    <circle cx="200" cy="340" r="2"/>
    <circle cx="220" cy="300" r="2"/>
    <circle cx="220" cy="320" r="2"/>
    <circle cx="220" cy="340" r="2"/>
    <circle cx="240" cy="300" r="2"/>
    <circle cx="240" cy="320" r="2"/>
    <circle cx="240" cy="340" r="2"/>

    <circle cx="1680" cy="740" r="2"/>
    <circle cx="1680" cy="760" r="2"/>
    <circle cx="1680" cy="780" r="2"/>
    <circle cx="1700" cy="740" r="2"/>
    <circle cx="1700" cy="760" r="2"/>
    <circle cx="1700" cy="780" r="2"/>
    <circle cx="1720" cy="740" r="2"/>
    <circle cx="1720" cy="760" r="2"/>
    <circle cx="1720" cy="780" r="2"/>
  </g>

  <!-- Social hint at bottom -->
  <text x="960" y="980" text-anchor="middle" fill="#8892b0" font-family="'JetBrains Mono', monospace" font-size="14" opacity="0.35" letter-spacing="3">
    me.ybhaw.com
  </text>
</svg>